<?xml version="1.0" encoding="UTF-8" standalone="no"?>
<!DOCTYPE svg PUBLIC "-//W3C//DTD SVG 1.1//EN"
 "http://www.w3.org/Graphics/SVG/1.1/DTD/svg11.dtd">
<!-- Generated by graphviz version 2.40.1 (20161225.0304)
 -->
<!-- Title: G Pages: 1 -->
<svg width="291pt" height="96pt"
 viewBox="0.00 0.00 291.29 96.00" xmlns="http://www.w3.org/2000/svg" xmlns:xlink="http://www.w3.org/1999/xlink">
<g id="graph0" class="graph" transform="scale(1 1) rotate(0) translate(4 92)">
<title>G</title>
<polygon fill="#ffffff" stroke="transparent" points="-4,4 -4,-92 287.2884,-92 287.2884,4 -4,4"/>
<g id="clust1" class="cluster">
<title>cluster_Global</title>
<path fill="none" stroke="#c0c0c0" d="M207.2884,-8C207.2884,-8 263.2884,-8 263.2884,-8 269.2884,-8 275.2884,-14 275.2884,-20 275.2884,-20 275.2884,-68 275.2884,-68 275.2884,-74 269.2884,-80 263.2884,-80 263.2884,-80 207.2884,-80 207.2884,-80 201.2884,-80 195.2884,-74 195.2884,-68 195.2884,-68 195.2884,-20 195.2884,-20 195.2884,-14 201.2884,-8 207.2884,-8"/>
<text text-anchor="middle" x="235.2884" y="-67.2" font-family="Times,serif" font-size="11.00" fill="#c0c0c0">Global</text>
</g>
<!-- \\Welcome -->
<g id="node1" class="node">
<title>\\Welcome</title>
<polygon fill="none" stroke="#000000" points="267.2884,-52 203.2884,-52 203.2884,-16 267.2884,-16 267.2884,-52"/>
<text text-anchor="middle" x="235.2884" y="-31.2" font-family="Courier,monospace" font-size="11.00" fill="#000000">Welcome</text>
</g>
<!-- \\CI_Controller -->
<g id="node2" class="node">
<title>\\CI_Controller</title>
<ellipse fill="none" stroke="#000000" cx="65.6442" cy="-34" rx="65.7887" ry="18"/>
<text text-anchor="middle" x="65.6442" y="-30.3" font-family="Times,serif" font-size="14.00" fill="#c0c0c0">\CI_Controller</text>
</g>
<!-- \\Welcome&#45;&gt;\\CI_Controller -->
<g id="edge1" class="edge">
<title>\\Welcome&#45;&gt;\\CI_Controller</title>
<path fill="none" stroke="#000000" d="M202.9803,-34C185.5522,-34 163.2478,-34 141.7053,-34"/>
<polygon fill="none" stroke="#000000" points="141.5499,-30.5001 131.5499,-34 141.5498,-37.5001 141.5499,-30.5001"/>
</g>
</g>
</svg>
